# xmcd
#
# Track frame offsets:
#	150
#	10457
#	23152
#	35700
#	47737
#	60537
#	70902
#	80402
#	92997
#	103067
#	117665
#	131870
#	147235
#	159160
#	169942
#	179630
#	189377
#	199415
#	211052
#	221957
#
# Disc length: 3111 seconds
#
# Revision: 0
# Processed by: cddbd v1.4PL0 Copyright (c) Steve Scherf et al.
# Submitted via: dBpowerAMP V4.0
#
DISCID=340c2514
DTITLE=Various Artist - Campfire Country
DYEAR=1996
DGENRE=Country
TTITLE0=Johnny Russel - Jambalaya
TTITLE1=Lynn Anderson - Top of the World
TTITLE2=Billie Jo Spears - What I've Got In Mind
TTITLE3=Stonewall Jackson - I Love You Because
TTITLE4=Freddy Fender - Silver Wings
TTITLE5=Waylon Jennings - White Lightning
TTITLE6=Ned Miller - From a Jack to a King
TTITLE7=Kenny Rogers - Reuben James
TTITLE8=Willie Nelson - The Healing Hands of Time
TTITLE9=Johnny Paycheck - Green Green Grass of Home
TTITLE10=George Jones - A Good Year for the Roses
TTITLE11=Don Gibson - Sweet Dreams
TTITLE12=Jack Greene - There Goes My Everything
TTITLE13=Don Williams - Take My Hand For a While
TTITLE14=Freddy Fender - But I Do
TTITLE15=Donna Fargo - Sticks and Stones
TTITLE16=Patsy Cline - I Cried All the Way to the Altar
TTITLE17=Patsy Cline - A Poor Man's Roses
TTITLE18=Porter Wagoner - Enough to Make a Grown Man Cry
TTITLE19=Faron Young - Is It Really Over
EXTD=
EXTT0=
EXTT1=
EXTT2=
EXTT3=
EXTT4=
EXTT5=
EXTT6=
EXTT7=
EXTT8=
EXTT9=
EXTT10=
EXTT11=
EXTT12=
EXTT13=
EXTT14=
EXTT15=
EXTT16=
EXTT17=
EXTT18=
EXTT19=
PLAYORDER=
